<?xml version="1.0" standalone="no"?>
<!DOCTYPE svg PUBLIC "-//W3C//DTD SVG 20010904//EN"
 "http://www.w3.org/TR/2001/REC-SVG-20010904/DTD/svg10.dtd">
<svg version="1.0" xmlns="http://www.w3.org/2000/svg"
 width="1226.000000pt" height="1226.000000pt" viewBox="0 0 1226.000000 1226.000000"
 preserveAspectRatio="xMidYMid meet">
<metadata>
Created by potrace 1.14, written by Peter Selinger 2001-2017
</metadata>
<g transform="translate(0.000000,1226.000000) scale(0.100000,-0.100000)"
fill="#000000" stroke="none">
<path d="M8105 9693 c-135 -5 -411 -33 -581 -58 -1347 -200 -2874 -878 -4089
-1815 -77 -60 -158 -125 -180 -145 l-40 -37 39 28 c512 364 917 609 1426 864
1569 785 3185 1073 4230 753 363 -112 653 -306 832 -558 252 -355 292 -828
114 -1352 -231 -683 -756 -1374 -1601 -2111 l-50 -44 47 33 c189 129 563 454
829 719 699 698 1127 1410 1225 2038 25 160 23 399 -5 529 -146 693 -762 1092
-1776 1153 -161 9 -236 10 -420 3z"/>
<path d="M6189 8378 c-206 -198 -375 -365 -377 -370 -2 -4 12 -8 32 -8 l36 0
2 -322 3 -323 430 -3 c237 -2 656 0 933 3 l502 7 0 319 0 319 35 0 c19 0 35 3
35 7 0 3 -36 40 -80 80 l-80 75 0 189 0 189 -150 0 -150 0 0 -42 0 -43 -97 95
c-54 52 -121 117 -149 143 l-50 48 -126 -121 c-70 -66 -129 -116 -132 -112 -3
5 -59 59 -124 121 l-119 111 -374 -362z"/>
<path d="M5335 7523 c-275 -37 -457 -320 -375 -584 28 -91 61 -138 198 -276
l121 -123 -390 0 -389 0 0 -1586 c0 -872 4 -1584 8 -1582 5 2 214 125 465 273
l456 270 1 1238 0 1238 538 -539 c295 -295 568 -575 606 -620 38 -45 71 -82
73 -82 2 0 25 20 51 43 26 24 371 318 767 652 l720 608 5 -426 5 -426 460 277
460 277 3 193 2 192 -415 0 -416 0 138 118 c148 126 189 177 223 278 38 107
23 270 -33 364 -61 104 -152 178 -259 212 -119 37 -289 16 -381 -47 -20 -14
-259 -213 -529 -442 -341 -288 -509 -424 -546 -441 -106 -48 -248 -45 -355 9
-52 27 -127 96 -482 448 -461 458 -459 457 -605 480 -66 11 -71 11 -125 4z"/>
<path d="M2865 7279 c-280 -235 -657 -603 -861 -839 -488 -566 -812 -1129
-937 -1627 -57 -224 -70 -340 -64 -548 8 -240 38 -368 131 -553 207 -410 657
-688 1261 -776 281 -41 690 -46 1005 -11 1188 130 2524 660 3740 1482 204 138
543 390 611 453 24 23 108 95 187 161 78 67 142 123 142 126 0 7 -8 1 -182
-131 -78 -61 -163 -127 -187 -148 -64 -56 -506 -348 -711 -470 -1087 -649
-2181 -1046 -3240 -1175 -212 -26 -772 -25 -955 0 -836 118 -1331 510 -1440
1141 -19 114 -19 358 0 496 83 579 425 1218 1016 1897 56 65 216 232 356 371
139 138 252 252 250 252 -1 0 -56 -46 -122 -101z"/>
<path d="M9095 5688 c-11 -7 -25 -12 -30 -13 -6 0 -205 -119 -442 -265 l-433
-265 0 -717 0 -718 465 0 465 0 0 995 c0 547 -1 995 -2 995 -2 0 -12 -6 -23
-12z"/>
<path d="M4960 3151 l-455 -267 -3 -647 -2 -647 465 0 465 0 0 915 c0 503 -3
915 -7 914 -5 0 -213 -121 -463 -268z"/>
</g>
</svg>
